G04 #@! TF.FileFunction,Legend,Top*
%FSLAX46Y46*%
G04 Gerber Fmt 4.6, Leading zero omitted, Abs format (unit mm)*
G04 Created by KiCad (PCBNEW 0.201509091501+6172~30~ubuntu14.04.1-product) date Thu 10 Sep 2015 02:20:44 PM EDT*
%MOMM*%
G01*
G04 APERTURE LIST*
%ADD10C,0.100000*%
%ADD11C,0.254000*%
%ADD12C,0.508000*%
%ADD13C,0.228600*%
%ADD14C,0.381000*%
%ADD15R,2.533600X2.025600*%
%ADD16O,2.533600X2.025600*%
%ADD17C,4.464000*%
%ADD18C,4.337000*%
G04 APERTURE END LIST*
D10*
D11*
X90477219Y-90956189D02*
X91202933Y-90956189D01*
X91348076Y-91004569D01*
X91444838Y-91101331D01*
X91493219Y-91246474D01*
X91493219Y-91343236D01*
X91493219Y-90036951D02*
X90961029Y-90036951D01*
X90864267Y-90085332D01*
X90815886Y-90182094D01*
X90815886Y-90375617D01*
X90864267Y-90472379D01*
X91444838Y-90036951D02*
X91493219Y-90133713D01*
X91493219Y-90375617D01*
X91444838Y-90472379D01*
X91348076Y-90520760D01*
X91251314Y-90520760D01*
X91154552Y-90472379D01*
X91106171Y-90375617D01*
X91106171Y-90133713D01*
X91057790Y-90036951D01*
X90815886Y-89553141D02*
X91493219Y-89553141D01*
X90912648Y-89553141D02*
X90864267Y-89504760D01*
X90815886Y-89407998D01*
X90815886Y-89262856D01*
X90864267Y-89166094D01*
X90961029Y-89117713D01*
X91493219Y-89117713D01*
X91444838Y-88246856D02*
X91493219Y-88343618D01*
X91493219Y-88537141D01*
X91444838Y-88633903D01*
X91348076Y-88682284D01*
X90961029Y-88682284D01*
X90864267Y-88633903D01*
X90815886Y-88537141D01*
X90815886Y-88343618D01*
X90864267Y-88246856D01*
X90961029Y-88198475D01*
X91057790Y-88198475D01*
X91154552Y-88682284D01*
X91493219Y-87617903D02*
X91444838Y-87714665D01*
X91348076Y-87763046D01*
X90477219Y-87763046D01*
X91493219Y-87230856D02*
X90815886Y-87230856D01*
X90477219Y-87230856D02*
X90525600Y-87279237D01*
X90573981Y-87230856D01*
X90525600Y-87182475D01*
X90477219Y-87230856D01*
X90573981Y-87230856D01*
X91493219Y-86311618D02*
X90961029Y-86311618D01*
X90864267Y-86359999D01*
X90815886Y-86456761D01*
X90815886Y-86650284D01*
X90864267Y-86747046D01*
X91444838Y-86311618D02*
X91493219Y-86408380D01*
X91493219Y-86650284D01*
X91444838Y-86747046D01*
X91348076Y-86795427D01*
X91251314Y-86795427D01*
X91154552Y-86747046D01*
X91106171Y-86650284D01*
X91106171Y-86408380D01*
X91057790Y-86311618D01*
X90477219Y-85198856D02*
X91493219Y-84860189D01*
X90477219Y-84521523D01*
X91493219Y-83747428D02*
X90961029Y-83747428D01*
X90864267Y-83795809D01*
X90815886Y-83892571D01*
X90815886Y-84086094D01*
X90864267Y-84182856D01*
X91444838Y-83747428D02*
X91493219Y-83844190D01*
X91493219Y-84086094D01*
X91444838Y-84182856D01*
X91348076Y-84231237D01*
X91251314Y-84231237D01*
X91154552Y-84182856D01*
X91106171Y-84086094D01*
X91106171Y-83844190D01*
X91057790Y-83747428D01*
X91493219Y-83118475D02*
X91444838Y-83215237D01*
X91348076Y-83263618D01*
X90477219Y-83263618D01*
X90815886Y-82828190D02*
X91493219Y-82586285D01*
X90815886Y-82344381D01*
X91444838Y-81570286D02*
X91493219Y-81667048D01*
X91493219Y-81860571D01*
X91444838Y-81957333D01*
X91348076Y-82005714D01*
X90961029Y-82005714D01*
X90864267Y-81957333D01*
X90815886Y-81860571D01*
X90815886Y-81667048D01*
X90864267Y-81570286D01*
X90961029Y-81521905D01*
X91057790Y-81521905D01*
X91154552Y-82005714D01*
X90961029Y-79973715D02*
X91009410Y-79828572D01*
X91057790Y-79780191D01*
X91154552Y-79731810D01*
X91299695Y-79731810D01*
X91396457Y-79780191D01*
X91444838Y-79828572D01*
X91493219Y-79925334D01*
X91493219Y-80312381D01*
X90477219Y-80312381D01*
X90477219Y-79973715D01*
X90525600Y-79876953D01*
X90573981Y-79828572D01*
X90670743Y-79780191D01*
X90767505Y-79780191D01*
X90864267Y-79828572D01*
X90912648Y-79876953D01*
X90961029Y-79973715D01*
X90961029Y-80312381D01*
X91493219Y-79151238D02*
X91444838Y-79248000D01*
X91396457Y-79296381D01*
X91299695Y-79344762D01*
X91009410Y-79344762D01*
X90912648Y-79296381D01*
X90864267Y-79248000D01*
X90815886Y-79151238D01*
X90815886Y-79006096D01*
X90864267Y-78909334D01*
X90912648Y-78860953D01*
X91009410Y-78812572D01*
X91299695Y-78812572D01*
X91396457Y-78860953D01*
X91444838Y-78909334D01*
X91493219Y-79006096D01*
X91493219Y-79151238D01*
X91493219Y-77941715D02*
X90961029Y-77941715D01*
X90864267Y-77990096D01*
X90815886Y-78086858D01*
X90815886Y-78280381D01*
X90864267Y-78377143D01*
X91444838Y-77941715D02*
X91493219Y-78038477D01*
X91493219Y-78280381D01*
X91444838Y-78377143D01*
X91348076Y-78425524D01*
X91251314Y-78425524D01*
X91154552Y-78377143D01*
X91106171Y-78280381D01*
X91106171Y-78038477D01*
X91057790Y-77941715D01*
X91493219Y-77457905D02*
X90815886Y-77457905D01*
X91009410Y-77457905D02*
X90912648Y-77409524D01*
X90864267Y-77361143D01*
X90815886Y-77264381D01*
X90815886Y-77167620D01*
X91493219Y-76393525D02*
X90477219Y-76393525D01*
X91444838Y-76393525D02*
X91493219Y-76490287D01*
X91493219Y-76683810D01*
X91444838Y-76780572D01*
X91396457Y-76828953D01*
X91299695Y-76877334D01*
X91009410Y-76877334D01*
X90912648Y-76828953D01*
X90864267Y-76780572D01*
X90815886Y-76683810D01*
X90815886Y-76490287D01*
X90864267Y-76393525D01*
X93169619Y-87327617D02*
X93121238Y-87424379D01*
X93024476Y-87472760D01*
X92153619Y-87472760D01*
X93121238Y-86553523D02*
X93169619Y-86650285D01*
X93169619Y-86843808D01*
X93121238Y-86940570D01*
X93024476Y-86988951D01*
X92637429Y-86988951D01*
X92540667Y-86940570D01*
X92492286Y-86843808D01*
X92492286Y-86650285D01*
X92540667Y-86553523D01*
X92637429Y-86505142D01*
X92734190Y-86505142D01*
X92830952Y-86988951D01*
X93121238Y-85682666D02*
X93169619Y-85779428D01*
X93169619Y-85972951D01*
X93121238Y-86069713D01*
X93024476Y-86118094D01*
X92637429Y-86118094D01*
X92540667Y-86069713D01*
X92492286Y-85972951D01*
X92492286Y-85779428D01*
X92540667Y-85682666D01*
X92637429Y-85634285D01*
X92734190Y-85634285D01*
X92830952Y-86118094D01*
X93121238Y-84763428D02*
X93169619Y-84860190D01*
X93169619Y-85053713D01*
X93121238Y-85150475D01*
X93072857Y-85198856D01*
X92976095Y-85247237D01*
X92685810Y-85247237D01*
X92589048Y-85198856D01*
X92540667Y-85150475D01*
X92492286Y-85053713D01*
X92492286Y-84860190D01*
X92540667Y-84763428D01*
X93169619Y-84182856D02*
X93121238Y-84279618D01*
X93072857Y-84327999D01*
X92976095Y-84376380D01*
X92685810Y-84376380D01*
X92589048Y-84327999D01*
X92540667Y-84279618D01*
X92492286Y-84182856D01*
X92492286Y-84037714D01*
X92540667Y-83940952D01*
X92589048Y-83892571D01*
X92685810Y-83844190D01*
X92976095Y-83844190D01*
X93072857Y-83892571D01*
X93121238Y-83940952D01*
X93169619Y-84037714D01*
X93169619Y-84182856D01*
X93266381Y-83650666D02*
X93266381Y-82876571D01*
X93169619Y-82489523D02*
X93121238Y-82586285D01*
X93024476Y-82634666D01*
X92153619Y-82634666D01*
X92492286Y-82247619D02*
X92492286Y-81860571D01*
X93169619Y-82102476D02*
X92298762Y-82102476D01*
X92202000Y-82054095D01*
X92153619Y-81957333D01*
X92153619Y-81860571D01*
X93169619Y-81086477D02*
X92637429Y-81086477D01*
X92540667Y-81134858D01*
X92492286Y-81231620D01*
X92492286Y-81425143D01*
X92540667Y-81521905D01*
X93121238Y-81086477D02*
X93169619Y-81183239D01*
X93169619Y-81425143D01*
X93121238Y-81521905D01*
X93024476Y-81570286D01*
X92927714Y-81570286D01*
X92830952Y-81521905D01*
X92782571Y-81425143D01*
X92782571Y-81183239D01*
X92734190Y-81086477D01*
X93169619Y-80167239D02*
X92637429Y-80167239D01*
X92540667Y-80215620D01*
X92492286Y-80312382D01*
X92492286Y-80505905D01*
X92540667Y-80602667D01*
X93121238Y-80167239D02*
X93169619Y-80264001D01*
X93169619Y-80505905D01*
X93121238Y-80602667D01*
X93024476Y-80651048D01*
X92927714Y-80651048D01*
X92830952Y-80602667D01*
X92782571Y-80505905D01*
X92782571Y-80264001D01*
X92734190Y-80167239D01*
X93830019Y-91512570D02*
X93830019Y-91415809D01*
X93878400Y-91319047D01*
X93926781Y-91270666D01*
X94023543Y-91222285D01*
X94217067Y-91173904D01*
X94458971Y-91173904D01*
X94652495Y-91222285D01*
X94749257Y-91270666D01*
X94797638Y-91319047D01*
X94846019Y-91415809D01*
X94846019Y-91512570D01*
X94797638Y-91609332D01*
X94749257Y-91657713D01*
X94652495Y-91706094D01*
X94458971Y-91754475D01*
X94217067Y-91754475D01*
X94023543Y-91706094D01*
X93926781Y-91657713D01*
X93878400Y-91609332D01*
X93830019Y-91512570D01*
X94846019Y-90690094D02*
X94846019Y-90496570D01*
X94797638Y-90399809D01*
X94749257Y-90351428D01*
X94604114Y-90254666D01*
X94410590Y-90206285D01*
X94023543Y-90206285D01*
X93926781Y-90254666D01*
X93878400Y-90303047D01*
X93830019Y-90399809D01*
X93830019Y-90593332D01*
X93878400Y-90690094D01*
X93926781Y-90738475D01*
X94023543Y-90786856D01*
X94265448Y-90786856D01*
X94362210Y-90738475D01*
X94410590Y-90690094D01*
X94458971Y-90593332D01*
X94458971Y-90399809D01*
X94410590Y-90303047D01*
X94362210Y-90254666D01*
X94265448Y-90206285D01*
X93781638Y-89045142D02*
X95087924Y-89915999D01*
X93926781Y-88754856D02*
X93878400Y-88706475D01*
X93830019Y-88609713D01*
X93830019Y-88367809D01*
X93878400Y-88271047D01*
X93926781Y-88222666D01*
X94023543Y-88174285D01*
X94120305Y-88174285D01*
X94265448Y-88222666D01*
X94846019Y-88803237D01*
X94846019Y-88174285D01*
X93830019Y-87545332D02*
X93830019Y-87448571D01*
X93878400Y-87351809D01*
X93926781Y-87303428D01*
X94023543Y-87255047D01*
X94217067Y-87206666D01*
X94458971Y-87206666D01*
X94652495Y-87255047D01*
X94749257Y-87303428D01*
X94797638Y-87351809D01*
X94846019Y-87448571D01*
X94846019Y-87545332D01*
X94797638Y-87642094D01*
X94749257Y-87690475D01*
X94652495Y-87738856D01*
X94458971Y-87787237D01*
X94217067Y-87787237D01*
X94023543Y-87738856D01*
X93926781Y-87690475D01*
X93878400Y-87642094D01*
X93830019Y-87545332D01*
X94846019Y-86239047D02*
X94846019Y-86819618D01*
X94846019Y-86529332D02*
X93830019Y-86529332D01*
X93975162Y-86626094D01*
X94071924Y-86722856D01*
X94120305Y-86819618D01*
X93830019Y-85319809D02*
X93830019Y-85803618D01*
X94313829Y-85851999D01*
X94265448Y-85803618D01*
X94217067Y-85706856D01*
X94217067Y-85464952D01*
X94265448Y-85368190D01*
X94313829Y-85319809D01*
X94410590Y-85271428D01*
X94652495Y-85271428D01*
X94749257Y-85319809D01*
X94797638Y-85368190D01*
X94846019Y-85464952D01*
X94846019Y-85706856D01*
X94797638Y-85803618D01*
X94749257Y-85851999D01*
X94168686Y-84158666D02*
X94846019Y-83916761D01*
X94168686Y-83674857D01*
X94797638Y-82900762D02*
X94846019Y-82997524D01*
X94846019Y-83191047D01*
X94797638Y-83287809D01*
X94700876Y-83336190D01*
X94313829Y-83336190D01*
X94217067Y-83287809D01*
X94168686Y-83191047D01*
X94168686Y-82997524D01*
X94217067Y-82900762D01*
X94313829Y-82852381D01*
X94410590Y-82852381D01*
X94507352Y-83336190D01*
X94846019Y-82416952D02*
X94168686Y-82416952D01*
X94362210Y-82416952D02*
X94265448Y-82368571D01*
X94217067Y-82320190D01*
X94168686Y-82223428D01*
X94168686Y-82126667D01*
X94797638Y-81836381D02*
X94846019Y-81739619D01*
X94846019Y-81546095D01*
X94797638Y-81449334D01*
X94700876Y-81400953D01*
X94652495Y-81400953D01*
X94555733Y-81449334D01*
X94507352Y-81546095D01*
X94507352Y-81691238D01*
X94458971Y-81788000D01*
X94362210Y-81836381D01*
X94313829Y-81836381D01*
X94217067Y-81788000D01*
X94168686Y-81691238D01*
X94168686Y-81546095D01*
X94217067Y-81449334D01*
X94846019Y-80965524D02*
X94168686Y-80965524D01*
X93830019Y-80965524D02*
X93878400Y-81013905D01*
X93926781Y-80965524D01*
X93878400Y-80917143D01*
X93830019Y-80965524D01*
X93926781Y-80965524D01*
X94846019Y-80336571D02*
X94797638Y-80433333D01*
X94749257Y-80481714D01*
X94652495Y-80530095D01*
X94362210Y-80530095D01*
X94265448Y-80481714D01*
X94217067Y-80433333D01*
X94168686Y-80336571D01*
X94168686Y-80191429D01*
X94217067Y-80094667D01*
X94265448Y-80046286D01*
X94362210Y-79997905D01*
X94652495Y-79997905D01*
X94749257Y-80046286D01*
X94797638Y-80094667D01*
X94846019Y-80191429D01*
X94846019Y-80336571D01*
X94168686Y-79562476D02*
X94846019Y-79562476D01*
X94265448Y-79562476D02*
X94217067Y-79514095D01*
X94168686Y-79417333D01*
X94168686Y-79272191D01*
X94217067Y-79175429D01*
X94313829Y-79127048D01*
X94846019Y-79127048D01*
X94846019Y-77336953D02*
X94846019Y-77917524D01*
X94846019Y-77627238D02*
X93830019Y-77627238D01*
X93975162Y-77724000D01*
X94071924Y-77820762D01*
X94120305Y-77917524D01*
X94749257Y-76901524D02*
X94797638Y-76853143D01*
X94846019Y-76901524D01*
X94797638Y-76949905D01*
X94749257Y-76901524D01*
X94846019Y-76901524D01*
X93830019Y-76224190D02*
X93830019Y-76127429D01*
X93878400Y-76030667D01*
X93926781Y-75982286D01*
X94023543Y-75933905D01*
X94217067Y-75885524D01*
X94458971Y-75885524D01*
X94652495Y-75933905D01*
X94749257Y-75982286D01*
X94797638Y-76030667D01*
X94846019Y-76127429D01*
X94846019Y-76224190D01*
X94797638Y-76320952D01*
X94749257Y-76369333D01*
X94652495Y-76417714D01*
X94458971Y-76466095D01*
X94217067Y-76466095D01*
X94023543Y-76417714D01*
X93926781Y-76369333D01*
X93878400Y-76320952D01*
X93830019Y-76224190D01*
X119863811Y-105869619D02*
X119863811Y-104853619D01*
X120299239Y-105869619D02*
X120299239Y-105337429D01*
X120250858Y-105240667D01*
X120154096Y-105192286D01*
X120008954Y-105192286D01*
X119912192Y-105240667D01*
X119863811Y-105289048D01*
X120637906Y-105192286D02*
X121024954Y-105192286D01*
X120783049Y-104853619D02*
X120783049Y-105724476D01*
X120831430Y-105821238D01*
X120928192Y-105869619D01*
X121024954Y-105869619D01*
X121218477Y-105192286D02*
X121605525Y-105192286D01*
X121363620Y-104853619D02*
X121363620Y-105724476D01*
X121412001Y-105821238D01*
X121508763Y-105869619D01*
X121605525Y-105869619D01*
X121944191Y-105192286D02*
X121944191Y-106208286D01*
X121944191Y-105240667D02*
X122040953Y-105192286D01*
X122234476Y-105192286D01*
X122331238Y-105240667D01*
X122379619Y-105289048D01*
X122428000Y-105385810D01*
X122428000Y-105676095D01*
X122379619Y-105772857D01*
X122331238Y-105821238D01*
X122234476Y-105869619D01*
X122040953Y-105869619D01*
X121944191Y-105821238D01*
X122815048Y-105821238D02*
X122911810Y-105869619D01*
X123105334Y-105869619D01*
X123202095Y-105821238D01*
X123250476Y-105724476D01*
X123250476Y-105676095D01*
X123202095Y-105579333D01*
X123105334Y-105530952D01*
X122960191Y-105530952D01*
X122863429Y-105482571D01*
X122815048Y-105385810D01*
X122815048Y-105337429D01*
X122863429Y-105240667D01*
X122960191Y-105192286D01*
X123105334Y-105192286D01*
X123202095Y-105240667D01*
X123685905Y-105772857D02*
X123734286Y-105821238D01*
X123685905Y-105869619D01*
X123637524Y-105821238D01*
X123685905Y-105772857D01*
X123685905Y-105869619D01*
X123685905Y-105240667D02*
X123734286Y-105289048D01*
X123685905Y-105337429D01*
X123637524Y-105289048D01*
X123685905Y-105240667D01*
X123685905Y-105337429D01*
X124895429Y-104805238D02*
X124024572Y-106111524D01*
X125959810Y-104805238D02*
X125088953Y-106111524D01*
X126733905Y-105192286D02*
X126733905Y-106014762D01*
X126685524Y-106111524D01*
X126637143Y-106159905D01*
X126540382Y-106208286D01*
X126395239Y-106208286D01*
X126298477Y-106159905D01*
X126733905Y-105821238D02*
X126637143Y-105869619D01*
X126443620Y-105869619D01*
X126346858Y-105821238D01*
X126298477Y-105772857D01*
X126250096Y-105676095D01*
X126250096Y-105385810D01*
X126298477Y-105289048D01*
X126346858Y-105240667D01*
X126443620Y-105192286D01*
X126637143Y-105192286D01*
X126733905Y-105240667D01*
X127217715Y-105869619D02*
X127217715Y-105192286D01*
X127217715Y-104853619D02*
X127169334Y-104902000D01*
X127217715Y-104950381D01*
X127266096Y-104902000D01*
X127217715Y-104853619D01*
X127217715Y-104950381D01*
X127556382Y-105192286D02*
X127943430Y-105192286D01*
X127701525Y-104853619D02*
X127701525Y-105724476D01*
X127749906Y-105821238D01*
X127846668Y-105869619D01*
X127943430Y-105869619D01*
X128282096Y-105869619D02*
X128282096Y-104853619D01*
X128717524Y-105869619D02*
X128717524Y-105337429D01*
X128669143Y-105240667D01*
X128572381Y-105192286D01*
X128427239Y-105192286D01*
X128330477Y-105240667D01*
X128282096Y-105289048D01*
X129636762Y-105192286D02*
X129636762Y-105869619D01*
X129201334Y-105192286D02*
X129201334Y-105724476D01*
X129249715Y-105821238D01*
X129346477Y-105869619D01*
X129491619Y-105869619D01*
X129588381Y-105821238D01*
X129636762Y-105772857D01*
X130120572Y-105869619D02*
X130120572Y-104853619D01*
X130120572Y-105240667D02*
X130217334Y-105192286D01*
X130410857Y-105192286D01*
X130507619Y-105240667D01*
X130556000Y-105289048D01*
X130604381Y-105385810D01*
X130604381Y-105676095D01*
X130556000Y-105772857D01*
X130507619Y-105821238D01*
X130410857Y-105869619D01*
X130217334Y-105869619D01*
X130120572Y-105821238D01*
X131039810Y-105772857D02*
X131088191Y-105821238D01*
X131039810Y-105869619D01*
X130991429Y-105821238D01*
X131039810Y-105772857D01*
X131039810Y-105869619D01*
X131959048Y-105821238D02*
X131862286Y-105869619D01*
X131668763Y-105869619D01*
X131572001Y-105821238D01*
X131523620Y-105772857D01*
X131475239Y-105676095D01*
X131475239Y-105385810D01*
X131523620Y-105289048D01*
X131572001Y-105240667D01*
X131668763Y-105192286D01*
X131862286Y-105192286D01*
X131959048Y-105240667D01*
X132539620Y-105869619D02*
X132442858Y-105821238D01*
X132394477Y-105772857D01*
X132346096Y-105676095D01*
X132346096Y-105385810D01*
X132394477Y-105289048D01*
X132442858Y-105240667D01*
X132539620Y-105192286D01*
X132684762Y-105192286D01*
X132781524Y-105240667D01*
X132829905Y-105289048D01*
X132878286Y-105385810D01*
X132878286Y-105676095D01*
X132829905Y-105772857D01*
X132781524Y-105821238D01*
X132684762Y-105869619D01*
X132539620Y-105869619D01*
X133313715Y-105869619D02*
X133313715Y-105192286D01*
X133313715Y-105289048D02*
X133362096Y-105240667D01*
X133458858Y-105192286D01*
X133604000Y-105192286D01*
X133700762Y-105240667D01*
X133749143Y-105337429D01*
X133749143Y-105869619D01*
X133749143Y-105337429D02*
X133797524Y-105240667D01*
X133894286Y-105192286D01*
X134039429Y-105192286D01*
X134136191Y-105240667D01*
X134184572Y-105337429D01*
X134184572Y-105869619D01*
X135394096Y-104805238D02*
X134523239Y-106111524D01*
X135732763Y-105192286D02*
X135732763Y-106063143D01*
X135684382Y-106159905D01*
X135587620Y-106208286D01*
X135539239Y-106208286D01*
X135732763Y-104853619D02*
X135684382Y-104902000D01*
X135732763Y-104950381D01*
X135781144Y-104902000D01*
X135732763Y-104853619D01*
X135732763Y-104950381D01*
X136652001Y-105869619D02*
X136652001Y-105337429D01*
X136603620Y-105240667D01*
X136506858Y-105192286D01*
X136313335Y-105192286D01*
X136216573Y-105240667D01*
X136652001Y-105821238D02*
X136555239Y-105869619D01*
X136313335Y-105869619D01*
X136216573Y-105821238D01*
X136168192Y-105724476D01*
X136168192Y-105627714D01*
X136216573Y-105530952D01*
X136313335Y-105482571D01*
X136555239Y-105482571D01*
X136652001Y-105434190D01*
X137135811Y-105192286D02*
X137135811Y-105869619D01*
X137135811Y-105289048D02*
X137184192Y-105240667D01*
X137280954Y-105192286D01*
X137426096Y-105192286D01*
X137522858Y-105240667D01*
X137571239Y-105337429D01*
X137571239Y-105869619D01*
X138442096Y-105821238D02*
X138345334Y-105869619D01*
X138151811Y-105869619D01*
X138055049Y-105821238D01*
X138006668Y-105724476D01*
X138006668Y-105337429D01*
X138055049Y-105240667D01*
X138151811Y-105192286D01*
X138345334Y-105192286D01*
X138442096Y-105240667D01*
X138490477Y-105337429D01*
X138490477Y-105434190D01*
X138006668Y-105530952D01*
X139071049Y-105869619D02*
X138974287Y-105821238D01*
X138925906Y-105724476D01*
X138925906Y-104853619D01*
X139458096Y-105869619D02*
X139458096Y-105192286D01*
X139458096Y-104853619D02*
X139409715Y-104902000D01*
X139458096Y-104950381D01*
X139506477Y-104902000D01*
X139458096Y-104853619D01*
X139458096Y-104950381D01*
X140377334Y-105869619D02*
X140377334Y-105337429D01*
X140328953Y-105240667D01*
X140232191Y-105192286D01*
X140038668Y-105192286D01*
X139941906Y-105240667D01*
X140377334Y-105821238D02*
X140280572Y-105869619D01*
X140038668Y-105869619D01*
X139941906Y-105821238D01*
X139893525Y-105724476D01*
X139893525Y-105627714D01*
X139941906Y-105530952D01*
X140038668Y-105482571D01*
X140280572Y-105482571D01*
X140377334Y-105434190D01*
X140861144Y-105482571D02*
X141635239Y-105482571D01*
X142119049Y-105869619D02*
X142119049Y-105192286D01*
X142119049Y-104853619D02*
X142070668Y-104902000D01*
X142119049Y-104950381D01*
X142167430Y-104902000D01*
X142119049Y-104853619D01*
X142119049Y-104950381D01*
X143038287Y-105869619D02*
X143038287Y-104853619D01*
X143038287Y-105821238D02*
X142941525Y-105869619D01*
X142748002Y-105869619D01*
X142651240Y-105821238D01*
X142602859Y-105772857D01*
X142554478Y-105676095D01*
X142554478Y-105385810D01*
X142602859Y-105289048D01*
X142651240Y-105240667D01*
X142748002Y-105192286D01*
X142941525Y-105192286D01*
X143038287Y-105240667D01*
X143376954Y-105192286D02*
X143764002Y-105192286D01*
X143522097Y-105869619D02*
X143522097Y-104998762D01*
X143570478Y-104902000D01*
X143667240Y-104853619D01*
X143764002Y-104853619D01*
X144828382Y-104805238D02*
X143957525Y-106111524D01*
X145070287Y-105192286D02*
X145312192Y-105869619D01*
X145554096Y-105192286D01*
X146376572Y-105869619D02*
X146376572Y-105337429D01*
X146328191Y-105240667D01*
X146231429Y-105192286D01*
X146037906Y-105192286D01*
X145941144Y-105240667D01*
X146376572Y-105821238D02*
X146279810Y-105869619D01*
X146037906Y-105869619D01*
X145941144Y-105821238D01*
X145892763Y-105724476D01*
X145892763Y-105627714D01*
X145941144Y-105530952D01*
X146037906Y-105482571D01*
X146279810Y-105482571D01*
X146376572Y-105434190D01*
X147005525Y-105869619D02*
X146908763Y-105821238D01*
X146860382Y-105724476D01*
X146860382Y-104853619D01*
X147295810Y-105192286D02*
X147537715Y-105869619D01*
X147779619Y-105192286D01*
X148553714Y-105821238D02*
X148456952Y-105869619D01*
X148263429Y-105869619D01*
X148166667Y-105821238D01*
X148118286Y-105724476D01*
X148118286Y-105337429D01*
X148166667Y-105240667D01*
X148263429Y-105192286D01*
X148456952Y-105192286D01*
X148553714Y-105240667D01*
X148602095Y-105337429D01*
X148602095Y-105434190D01*
X148118286Y-105530952D01*
X148795619Y-105966381D02*
X149569714Y-105966381D01*
X149811619Y-105869619D02*
X149811619Y-104853619D01*
X149811619Y-105240667D02*
X149908381Y-105192286D01*
X150101904Y-105192286D01*
X150198666Y-105240667D01*
X150247047Y-105289048D01*
X150295428Y-105385810D01*
X150295428Y-105676095D01*
X150247047Y-105772857D01*
X150198666Y-105821238D01*
X150101904Y-105869619D01*
X149908381Y-105869619D01*
X149811619Y-105821238D01*
X150876000Y-105869619D02*
X150779238Y-105821238D01*
X150730857Y-105772857D01*
X150682476Y-105676095D01*
X150682476Y-105385810D01*
X150730857Y-105289048D01*
X150779238Y-105240667D01*
X150876000Y-105192286D01*
X151021142Y-105192286D01*
X151117904Y-105240667D01*
X151166285Y-105289048D01*
X151214666Y-105385810D01*
X151214666Y-105676095D01*
X151166285Y-105772857D01*
X151117904Y-105821238D01*
X151021142Y-105869619D01*
X150876000Y-105869619D01*
X152085523Y-105869619D02*
X152085523Y-105337429D01*
X152037142Y-105240667D01*
X151940380Y-105192286D01*
X151746857Y-105192286D01*
X151650095Y-105240667D01*
X152085523Y-105821238D02*
X151988761Y-105869619D01*
X151746857Y-105869619D01*
X151650095Y-105821238D01*
X151601714Y-105724476D01*
X151601714Y-105627714D01*
X151650095Y-105530952D01*
X151746857Y-105482571D01*
X151988761Y-105482571D01*
X152085523Y-105434190D01*
X152569333Y-105869619D02*
X152569333Y-105192286D01*
X152569333Y-105385810D02*
X152617714Y-105289048D01*
X152666095Y-105240667D01*
X152762857Y-105192286D01*
X152859618Y-105192286D01*
X153633713Y-105869619D02*
X153633713Y-104853619D01*
X153633713Y-105821238D02*
X153536951Y-105869619D01*
X153343428Y-105869619D01*
X153246666Y-105821238D01*
X153198285Y-105772857D01*
X153149904Y-105676095D01*
X153149904Y-105385810D01*
X153198285Y-105289048D01*
X153246666Y-105240667D01*
X153343428Y-105192286D01*
X153536951Y-105192286D01*
X153633713Y-105240667D01*
X154069142Y-105821238D02*
X154165904Y-105869619D01*
X154359428Y-105869619D01*
X154456189Y-105821238D01*
X154504570Y-105724476D01*
X154504570Y-105676095D01*
X154456189Y-105579333D01*
X154359428Y-105530952D01*
X154214285Y-105530952D01*
X154117523Y-105482571D01*
X154069142Y-105385810D01*
X154069142Y-105337429D01*
X154117523Y-105240667D01*
X154214285Y-105192286D01*
X154359428Y-105192286D01*
X154456189Y-105240667D01*
D12*
X96677238Y-89722475D02*
X98709238Y-89045142D01*
X96677238Y-88367809D01*
X98128667Y-87787237D02*
X98128667Y-86819618D01*
X98709238Y-87980761D02*
X96677238Y-87303428D01*
X98709238Y-86626095D01*
X98709238Y-84981142D02*
X98709238Y-85948761D01*
X96677238Y-85948761D01*
X96677238Y-84594095D02*
X98709238Y-83916762D01*
X96677238Y-83239429D01*
X97644857Y-82562095D02*
X97644857Y-81884762D01*
X98709238Y-81594476D02*
X98709238Y-82562095D01*
X96677238Y-82562095D01*
X96677238Y-81594476D01*
X96677238Y-79368953D02*
X96677238Y-78111049D01*
X97451333Y-78788382D01*
X97451333Y-78498096D01*
X97548095Y-78304572D01*
X97644857Y-78207810D01*
X97838381Y-78111049D01*
X98322190Y-78111049D01*
X98515714Y-78207810D01*
X98612476Y-78304572D01*
X98709238Y-78498096D01*
X98709238Y-79078668D01*
X98612476Y-79272191D01*
X98515714Y-79368953D01*
X137317238Y-89722475D02*
X139349238Y-89045142D01*
X137317238Y-88367809D01*
X138768667Y-87787237D02*
X138768667Y-86819618D01*
X139349238Y-87980761D02*
X137317238Y-87303428D01*
X139349238Y-86626095D01*
X139349238Y-84981142D02*
X139349238Y-85948761D01*
X137317238Y-85948761D01*
X137317238Y-84594095D02*
X139349238Y-83916762D01*
X137317238Y-83239429D01*
X138284857Y-82562095D02*
X138284857Y-81884762D01*
X139349238Y-81594476D02*
X139349238Y-82562095D01*
X137317238Y-82562095D01*
X137317238Y-81594476D01*
X139349238Y-78111049D02*
X139349238Y-79272191D01*
X139349238Y-78691620D02*
X137317238Y-78691620D01*
X137607524Y-78885144D01*
X137801048Y-79078668D01*
X137897810Y-79272191D01*
X116997238Y-89722475D02*
X119029238Y-89045142D01*
X116997238Y-88367809D01*
X118448667Y-87787237D02*
X118448667Y-86819618D01*
X119029238Y-87980761D02*
X116997238Y-87303428D01*
X119029238Y-86626095D01*
X119029238Y-84981142D02*
X119029238Y-85948761D01*
X116997238Y-85948761D01*
X116997238Y-84594095D02*
X119029238Y-83916762D01*
X116997238Y-83239429D01*
X117964857Y-82562095D02*
X117964857Y-81884762D01*
X119029238Y-81594476D02*
X119029238Y-82562095D01*
X116997238Y-82562095D01*
X116997238Y-81594476D01*
X117190762Y-79272191D02*
X117094000Y-79175429D01*
X116997238Y-78981906D01*
X116997238Y-78498096D01*
X117094000Y-78304572D01*
X117190762Y-78207810D01*
X117384286Y-78111049D01*
X117577810Y-78111049D01*
X117868095Y-78207810D01*
X119029238Y-79368953D01*
X119029238Y-78111049D01*
X157637238Y-89722475D02*
X159669238Y-89045142D01*
X157637238Y-88367809D01*
X159088667Y-87787237D02*
X159088667Y-86819618D01*
X159669238Y-87980761D02*
X157637238Y-87303428D01*
X159669238Y-86626095D01*
X159669238Y-84981142D02*
X159669238Y-85948761D01*
X157637238Y-85948761D01*
X157637238Y-84594095D02*
X159669238Y-83916762D01*
X157637238Y-83239429D01*
X158604857Y-82562095D02*
X158604857Y-81884762D01*
X159669238Y-81594476D02*
X159669238Y-82562095D01*
X157637238Y-82562095D01*
X157637238Y-81594476D01*
X157637238Y-78788382D02*
X157637238Y-78594858D01*
X157734000Y-78401334D01*
X157830762Y-78304572D01*
X158024286Y-78207810D01*
X158411333Y-78111049D01*
X158895143Y-78111049D01*
X159282190Y-78207810D01*
X159475714Y-78304572D01*
X159572476Y-78401334D01*
X159669238Y-78594858D01*
X159669238Y-78788382D01*
X159572476Y-78981906D01*
X159475714Y-79078668D01*
X159282190Y-79175429D01*
X158895143Y-79272191D01*
X158411333Y-79272191D01*
X158024286Y-79175429D01*
X157830762Y-79078668D01*
X157734000Y-78981906D01*
X157637238Y-78788382D01*
D13*
X185420000Y-60960000D02*
X88900000Y-60960000D01*
X185420000Y-106680000D02*
X185420000Y-60960000D01*
X88900000Y-106680000D02*
X185420000Y-106680000D01*
X88900000Y-60960000D02*
X88900000Y-106680000D01*
D14*
X184912000Y-92710000D02*
X184912000Y-74930000D01*
X175768000Y-74930000D02*
X175768000Y-92710000D01*
X175768000Y-92710000D02*
X184912000Y-92710000D01*
X175768000Y-74930000D02*
X184912000Y-74930000D01*
X175768000Y-80010000D02*
X174498000Y-78740000D01*
X174498000Y-78740000D02*
X174498000Y-81280000D01*
X174498000Y-81280000D02*
X175768000Y-80010000D01*
X100330000Y-68580000D02*
X113030000Y-68580000D01*
X100330000Y-63500000D02*
X113030000Y-63500000D01*
X113030000Y-63500000D02*
X113030000Y-102870000D01*
X113030000Y-102870000D02*
X100330000Y-102870000D01*
X100330000Y-102870000D02*
X100330000Y-63500000D01*
X120650000Y-68580000D02*
X133350000Y-68580000D01*
X120650000Y-63500000D02*
X133350000Y-63500000D01*
X133350000Y-63500000D02*
X133350000Y-102870000D01*
X133350000Y-102870000D02*
X120650000Y-102870000D01*
X120650000Y-102870000D02*
X120650000Y-63500000D01*
X140970000Y-68580000D02*
X153670000Y-68580000D01*
X140970000Y-63500000D02*
X153670000Y-63500000D01*
X153670000Y-63500000D02*
X153670000Y-102870000D01*
X153670000Y-102870000D02*
X140970000Y-102870000D01*
X140970000Y-102870000D02*
X140970000Y-63500000D01*
X161290000Y-68580000D02*
X173990000Y-68580000D01*
X161290000Y-63500000D02*
X173990000Y-63500000D01*
X173990000Y-63500000D02*
X173990000Y-102870000D01*
X173990000Y-102870000D02*
X161290000Y-102870000D01*
X161290000Y-102870000D02*
X161290000Y-63500000D01*
D11*
X179590096Y-74119619D02*
X179590096Y-73103619D01*
X179977143Y-73103619D01*
X180073905Y-73152000D01*
X180122286Y-73200381D01*
X180170667Y-73297143D01*
X180170667Y-73442286D01*
X180122286Y-73539048D01*
X180073905Y-73587429D01*
X179977143Y-73635810D01*
X179590096Y-73635810D01*
X181138286Y-74119619D02*
X180557715Y-74119619D01*
X180848001Y-74119619D02*
X180848001Y-73103619D01*
X180751239Y-73248762D01*
X180654477Y-73345524D01*
X180557715Y-73393905D01*
X105905905Y-104551238D02*
X106051048Y-104599619D01*
X106292952Y-104599619D01*
X106389714Y-104551238D01*
X106438095Y-104502857D01*
X106486476Y-104406095D01*
X106486476Y-104309333D01*
X106438095Y-104212571D01*
X106389714Y-104164190D01*
X106292952Y-104115810D01*
X106099429Y-104067429D01*
X106002667Y-104019048D01*
X105954286Y-103970667D01*
X105905905Y-103873905D01*
X105905905Y-103777143D01*
X105954286Y-103680381D01*
X106002667Y-103632000D01*
X106099429Y-103583619D01*
X106341333Y-103583619D01*
X106486476Y-103632000D01*
X107357333Y-103922286D02*
X107357333Y-104599619D01*
X107115429Y-103535238D02*
X106873524Y-104260952D01*
X107502476Y-104260952D01*
X102930477Y-66499619D02*
X102446668Y-66499619D01*
X102446668Y-65483619D01*
X103269144Y-65967429D02*
X103607810Y-65967429D01*
X103752953Y-66499619D02*
X103269144Y-66499619D01*
X103269144Y-65483619D01*
X103752953Y-65483619D01*
X104188382Y-65967429D02*
X104527048Y-65967429D01*
X104672191Y-66499619D02*
X104188382Y-66499619D01*
X104188382Y-65483619D01*
X104672191Y-65483619D01*
X105688191Y-66402857D02*
X105639810Y-66451238D01*
X105494667Y-66499619D01*
X105397905Y-66499619D01*
X105252763Y-66451238D01*
X105156001Y-66354476D01*
X105107620Y-66257714D01*
X105059239Y-66064190D01*
X105059239Y-65919048D01*
X105107620Y-65725524D01*
X105156001Y-65628762D01*
X105252763Y-65532000D01*
X105397905Y-65483619D01*
X105494667Y-65483619D01*
X105639810Y-65532000D01*
X105688191Y-65580381D01*
X106317144Y-65483619D02*
X106510667Y-65483619D01*
X106607429Y-65532000D01*
X106704191Y-65628762D01*
X106752572Y-65822286D01*
X106752572Y-66160952D01*
X106704191Y-66354476D01*
X106607429Y-66451238D01*
X106510667Y-66499619D01*
X106317144Y-66499619D01*
X106220382Y-66451238D01*
X106123620Y-66354476D01*
X106075239Y-66160952D01*
X106075239Y-65822286D01*
X106123620Y-65628762D01*
X106220382Y-65532000D01*
X106317144Y-65483619D01*
X106946096Y-66596381D02*
X107720191Y-66596381D01*
X108445905Y-66499619D02*
X107962096Y-66499619D01*
X107962096Y-65483619D01*
X109123238Y-65967429D02*
X108784572Y-65967429D01*
X108784572Y-66499619D02*
X108784572Y-65483619D01*
X109268381Y-65483619D01*
X109607048Y-66209333D02*
X110090857Y-66209333D01*
X109510286Y-66499619D02*
X109848953Y-65483619D01*
X110187619Y-66499619D01*
X110477905Y-66209333D02*
X110961714Y-66209333D01*
X110381143Y-66499619D02*
X110719810Y-65483619D01*
X111058476Y-66499619D01*
X126225905Y-104551238D02*
X126371048Y-104599619D01*
X126612952Y-104599619D01*
X126709714Y-104551238D01*
X126758095Y-104502857D01*
X126806476Y-104406095D01*
X126806476Y-104309333D01*
X126758095Y-104212571D01*
X126709714Y-104164190D01*
X126612952Y-104115810D01*
X126419429Y-104067429D01*
X126322667Y-104019048D01*
X126274286Y-103970667D01*
X126225905Y-103873905D01*
X126225905Y-103777143D01*
X126274286Y-103680381D01*
X126322667Y-103632000D01*
X126419429Y-103583619D01*
X126661333Y-103583619D01*
X126806476Y-103632000D01*
X127145143Y-103583619D02*
X127774095Y-103583619D01*
X127435429Y-103970667D01*
X127580571Y-103970667D01*
X127677333Y-104019048D01*
X127725714Y-104067429D01*
X127774095Y-104164190D01*
X127774095Y-104406095D01*
X127725714Y-104502857D01*
X127677333Y-104551238D01*
X127580571Y-104599619D01*
X127290286Y-104599619D01*
X127193524Y-104551238D01*
X127145143Y-104502857D01*
X123250477Y-66499619D02*
X122766668Y-66499619D01*
X122766668Y-65483619D01*
X123589144Y-65967429D02*
X123927810Y-65967429D01*
X124072953Y-66499619D02*
X123589144Y-66499619D01*
X123589144Y-65483619D01*
X124072953Y-65483619D01*
X124508382Y-65967429D02*
X124847048Y-65967429D01*
X124992191Y-66499619D02*
X124508382Y-66499619D01*
X124508382Y-65483619D01*
X124992191Y-65483619D01*
X126008191Y-66402857D02*
X125959810Y-66451238D01*
X125814667Y-66499619D01*
X125717905Y-66499619D01*
X125572763Y-66451238D01*
X125476001Y-66354476D01*
X125427620Y-66257714D01*
X125379239Y-66064190D01*
X125379239Y-65919048D01*
X125427620Y-65725524D01*
X125476001Y-65628762D01*
X125572763Y-65532000D01*
X125717905Y-65483619D01*
X125814667Y-65483619D01*
X125959810Y-65532000D01*
X126008191Y-65580381D01*
X126637144Y-65483619D02*
X126830667Y-65483619D01*
X126927429Y-65532000D01*
X127024191Y-65628762D01*
X127072572Y-65822286D01*
X127072572Y-66160952D01*
X127024191Y-66354476D01*
X126927429Y-66451238D01*
X126830667Y-66499619D01*
X126637144Y-66499619D01*
X126540382Y-66451238D01*
X126443620Y-66354476D01*
X126395239Y-66160952D01*
X126395239Y-65822286D01*
X126443620Y-65628762D01*
X126540382Y-65532000D01*
X126637144Y-65483619D01*
X127266096Y-66596381D02*
X128040191Y-66596381D01*
X128765905Y-66499619D02*
X128282096Y-66499619D01*
X128282096Y-65483619D01*
X129443238Y-65967429D02*
X129104572Y-65967429D01*
X129104572Y-66499619D02*
X129104572Y-65483619D01*
X129588381Y-65483619D01*
X129927048Y-66209333D02*
X130410857Y-66209333D01*
X129830286Y-66499619D02*
X130168953Y-65483619D01*
X130507619Y-66499619D01*
X130797905Y-66209333D02*
X131281714Y-66209333D01*
X130701143Y-66499619D02*
X131039810Y-65483619D01*
X131378476Y-66499619D01*
X146545905Y-104551238D02*
X146691048Y-104599619D01*
X146932952Y-104599619D01*
X147029714Y-104551238D01*
X147078095Y-104502857D01*
X147126476Y-104406095D01*
X147126476Y-104309333D01*
X147078095Y-104212571D01*
X147029714Y-104164190D01*
X146932952Y-104115810D01*
X146739429Y-104067429D01*
X146642667Y-104019048D01*
X146594286Y-103970667D01*
X146545905Y-103873905D01*
X146545905Y-103777143D01*
X146594286Y-103680381D01*
X146642667Y-103632000D01*
X146739429Y-103583619D01*
X146981333Y-103583619D01*
X147126476Y-103632000D01*
X147513524Y-103680381D02*
X147561905Y-103632000D01*
X147658667Y-103583619D01*
X147900571Y-103583619D01*
X147997333Y-103632000D01*
X148045714Y-103680381D01*
X148094095Y-103777143D01*
X148094095Y-103873905D01*
X148045714Y-104019048D01*
X147465143Y-104599619D01*
X148094095Y-104599619D01*
X143570477Y-66499619D02*
X143086668Y-66499619D01*
X143086668Y-65483619D01*
X143909144Y-65967429D02*
X144247810Y-65967429D01*
X144392953Y-66499619D02*
X143909144Y-66499619D01*
X143909144Y-65483619D01*
X144392953Y-65483619D01*
X144828382Y-65967429D02*
X145167048Y-65967429D01*
X145312191Y-66499619D02*
X144828382Y-66499619D01*
X144828382Y-65483619D01*
X145312191Y-65483619D01*
X146328191Y-66402857D02*
X146279810Y-66451238D01*
X146134667Y-66499619D01*
X146037905Y-66499619D01*
X145892763Y-66451238D01*
X145796001Y-66354476D01*
X145747620Y-66257714D01*
X145699239Y-66064190D01*
X145699239Y-65919048D01*
X145747620Y-65725524D01*
X145796001Y-65628762D01*
X145892763Y-65532000D01*
X146037905Y-65483619D01*
X146134667Y-65483619D01*
X146279810Y-65532000D01*
X146328191Y-65580381D01*
X146957144Y-65483619D02*
X147150667Y-65483619D01*
X147247429Y-65532000D01*
X147344191Y-65628762D01*
X147392572Y-65822286D01*
X147392572Y-66160952D01*
X147344191Y-66354476D01*
X147247429Y-66451238D01*
X147150667Y-66499619D01*
X146957144Y-66499619D01*
X146860382Y-66451238D01*
X146763620Y-66354476D01*
X146715239Y-66160952D01*
X146715239Y-65822286D01*
X146763620Y-65628762D01*
X146860382Y-65532000D01*
X146957144Y-65483619D01*
X147586096Y-66596381D02*
X148360191Y-66596381D01*
X149085905Y-66499619D02*
X148602096Y-66499619D01*
X148602096Y-65483619D01*
X149763238Y-65967429D02*
X149424572Y-65967429D01*
X149424572Y-66499619D02*
X149424572Y-65483619D01*
X149908381Y-65483619D01*
X150247048Y-66209333D02*
X150730857Y-66209333D01*
X150150286Y-66499619D02*
X150488953Y-65483619D01*
X150827619Y-66499619D01*
X151117905Y-66209333D02*
X151601714Y-66209333D01*
X151021143Y-66499619D02*
X151359810Y-65483619D01*
X151698476Y-66499619D01*
X166865905Y-104551238D02*
X167011048Y-104599619D01*
X167252952Y-104599619D01*
X167349714Y-104551238D01*
X167398095Y-104502857D01*
X167446476Y-104406095D01*
X167446476Y-104309333D01*
X167398095Y-104212571D01*
X167349714Y-104164190D01*
X167252952Y-104115810D01*
X167059429Y-104067429D01*
X166962667Y-104019048D01*
X166914286Y-103970667D01*
X166865905Y-103873905D01*
X166865905Y-103777143D01*
X166914286Y-103680381D01*
X166962667Y-103632000D01*
X167059429Y-103583619D01*
X167301333Y-103583619D01*
X167446476Y-103632000D01*
X168414095Y-104599619D02*
X167833524Y-104599619D01*
X168123810Y-104599619D02*
X168123810Y-103583619D01*
X168027048Y-103728762D01*
X167930286Y-103825524D01*
X167833524Y-103873905D01*
X163890477Y-66499619D02*
X163406668Y-66499619D01*
X163406668Y-65483619D01*
X164229144Y-65967429D02*
X164567810Y-65967429D01*
X164712953Y-66499619D02*
X164229144Y-66499619D01*
X164229144Y-65483619D01*
X164712953Y-65483619D01*
X165148382Y-65967429D02*
X165487048Y-65967429D01*
X165632191Y-66499619D02*
X165148382Y-66499619D01*
X165148382Y-65483619D01*
X165632191Y-65483619D01*
X166648191Y-66402857D02*
X166599810Y-66451238D01*
X166454667Y-66499619D01*
X166357905Y-66499619D01*
X166212763Y-66451238D01*
X166116001Y-66354476D01*
X166067620Y-66257714D01*
X166019239Y-66064190D01*
X166019239Y-65919048D01*
X166067620Y-65725524D01*
X166116001Y-65628762D01*
X166212763Y-65532000D01*
X166357905Y-65483619D01*
X166454667Y-65483619D01*
X166599810Y-65532000D01*
X166648191Y-65580381D01*
X167277144Y-65483619D02*
X167470667Y-65483619D01*
X167567429Y-65532000D01*
X167664191Y-65628762D01*
X167712572Y-65822286D01*
X167712572Y-66160952D01*
X167664191Y-66354476D01*
X167567429Y-66451238D01*
X167470667Y-66499619D01*
X167277144Y-66499619D01*
X167180382Y-66451238D01*
X167083620Y-66354476D01*
X167035239Y-66160952D01*
X167035239Y-65822286D01*
X167083620Y-65628762D01*
X167180382Y-65532000D01*
X167277144Y-65483619D01*
X167906096Y-66596381D02*
X168680191Y-66596381D01*
X169405905Y-66499619D02*
X168922096Y-66499619D01*
X168922096Y-65483619D01*
X170083238Y-65967429D02*
X169744572Y-65967429D01*
X169744572Y-66499619D02*
X169744572Y-65483619D01*
X170228381Y-65483619D01*
X170567048Y-66209333D02*
X171050857Y-66209333D01*
X170470286Y-66499619D02*
X170808953Y-65483619D01*
X171147619Y-66499619D01*
X171437905Y-66209333D02*
X171921714Y-66209333D01*
X171341143Y-66499619D02*
X171679810Y-65483619D01*
X172018476Y-66499619D01*
%LPC*%
D15*
X178816000Y-80010000D03*
D16*
X181864000Y-80010000D03*
X178816000Y-82550000D03*
X181864000Y-82550000D03*
X178816000Y-85090000D03*
X181864000Y-85090000D03*
X178816000Y-87630000D03*
X181864000Y-87630000D03*
D17*
X102870000Y-76200000D03*
X110490000Y-76200000D03*
X123190000Y-76200000D03*
X130810000Y-76200000D03*
X143510000Y-76200000D03*
X151130000Y-76200000D03*
X163830000Y-76200000D03*
X171450000Y-76200000D03*
D18*
X91440000Y-63500000D03*
X182880000Y-63500000D03*
X91440000Y-104140000D03*
X182880000Y-104140000D03*
M02*
