M48
;DRILL file {KiCad 0.201509091501+6172~30~ubuntu14.04.1-product} date Thu 10 Sep 2015 02:21:01 PM EDT
;FORMAT={-:-/ absolute / inch / decimal}
FMAT,2
INCH,TZ
T1C0.044
T2C0.087
T3C0.130
%
G90
G05
M72
T1
X7.05Y-3.15
X7.05Y-3.25
X7.05Y-3.35
X7.05Y-3.45
X7.15Y-3.15
X7.15Y-3.25
X7.15Y-3.35
X7.15Y-3.45
T2
X4.05Y-3.
X4.35Y-3.
X4.85Y-3.
X5.15Y-3.
X5.65Y-3.
X5.95Y-3.
X6.45Y-3.
X6.75Y-3.
T3
X3.6Y-2.5
X3.6Y-4.1
X7.2Y-2.5
X7.2Y-4.1
T0
M30
