G04 #@! TF.FileFunction,Copper,L2,Bot,Signal*
%FSLAX46Y46*%
G04 Gerber Fmt 4.6, Leading zero omitted, Abs format (unit mm)*
G04 Created by KiCad (PCBNEW 0.201509091501+6172~30~ubuntu14.04.1-product) date Thu 10 Sep 2015 02:20:44 PM EDT*
%MOMM*%
G01*
G04 APERTURE LIST*
%ADD10C,0.100000*%
%ADD11C,0.228600*%
%ADD12R,2.133600X1.625600*%
%ADD13O,2.133600X1.625600*%
%ADD14C,4.064000*%
%ADD15C,3.937000*%
%ADD16C,0.812800*%
%ADD17C,0.203200*%
G04 APERTURE END LIST*
D10*
D11*
X185420000Y-60960000D02*
X88900000Y-60960000D01*
X185420000Y-106680000D02*
X185420000Y-60960000D01*
X88900000Y-106680000D02*
X185420000Y-106680000D01*
X88900000Y-60960000D02*
X88900000Y-106680000D01*
D12*
X178816000Y-80010000D03*
D13*
X181864000Y-80010000D03*
X178816000Y-82550000D03*
X181864000Y-82550000D03*
X178816000Y-85090000D03*
X181864000Y-85090000D03*
X178816000Y-87630000D03*
X181864000Y-87630000D03*
D14*
X102870000Y-76200000D03*
X110490000Y-76200000D03*
X123190000Y-76200000D03*
X130810000Y-76200000D03*
X143510000Y-76200000D03*
X151130000Y-76200000D03*
X163830000Y-76200000D03*
X171450000Y-76200000D03*
D15*
X91440000Y-63500000D03*
X182880000Y-63500000D03*
X91440000Y-104140000D03*
X182880000Y-104140000D03*
D16*
X105566200Y-73503800D02*
X102870000Y-76200000D01*
X120493800Y-73503800D02*
X105566200Y-73503800D01*
X123190000Y-76200000D02*
X120493800Y-73503800D01*
X140800400Y-73490400D02*
X143510000Y-76200000D01*
X125899600Y-73490400D02*
X140800400Y-73490400D01*
X123190000Y-76200000D02*
X125899600Y-73490400D01*
X161075200Y-78954800D02*
X163830000Y-76200000D01*
X146264800Y-78954800D02*
X161075200Y-78954800D01*
X143510000Y-76200000D02*
X146264800Y-78954800D01*
X179070000Y-87630000D02*
X179070000Y-85090000D01*
X179070000Y-85090000D02*
X179070000Y-82550000D01*
X179070000Y-82550000D02*
X179070000Y-80010000D01*
X181610000Y-80010000D02*
X181610000Y-78536500D01*
X179273500Y-76200000D02*
X181610000Y-78536500D01*
X171450000Y-76200000D02*
X179273500Y-76200000D01*
X181683300Y-82550000D02*
X181610000Y-82550000D01*
X183603200Y-80630100D02*
X181683300Y-82550000D01*
X183603200Y-78960800D02*
X183603200Y-80630100D01*
X178103900Y-73461500D02*
X183603200Y-78960800D01*
X153868500Y-73461500D02*
X178103900Y-73461500D01*
X151130000Y-76200000D02*
X153868500Y-73461500D01*
X181723700Y-85090000D02*
X181610000Y-85090000D01*
X183597500Y-86963800D02*
X181723700Y-85090000D01*
X183597500Y-88240400D02*
X183597500Y-86963800D01*
X182734300Y-89103600D02*
X183597500Y-88240400D01*
X143713600Y-89103600D02*
X182734300Y-89103600D01*
X130810000Y-76200000D02*
X143713600Y-89103600D01*
D17*
G36*
X181565223Y-61528575D02*
X180910873Y-62181784D01*
X180556304Y-63035680D01*
X180555497Y-63960264D01*
X180908575Y-64814777D01*
X181561784Y-65469127D01*
X182415680Y-65823696D01*
X183340264Y-65824503D01*
X184194777Y-65471425D01*
X184849127Y-64818216D01*
X185000900Y-64452706D01*
X185000900Y-103186980D01*
X184851425Y-102825223D01*
X184198216Y-102170873D01*
X183344320Y-101816304D01*
X182419736Y-101815497D01*
X181565223Y-102168575D01*
X180910873Y-102821784D01*
X180556304Y-103675680D01*
X180555497Y-104600264D01*
X180908575Y-105454777D01*
X181561784Y-106109127D01*
X181927294Y-106260900D01*
X92393020Y-106260900D01*
X92754777Y-106111425D01*
X93409127Y-105458216D01*
X93763696Y-104604320D01*
X93764503Y-103679736D01*
X93411425Y-102825223D01*
X92758216Y-102170873D01*
X91904320Y-101816304D01*
X90979736Y-101815497D01*
X90125223Y-102168575D01*
X89470873Y-102821784D01*
X89319100Y-103187294D01*
X89319100Y-78101253D01*
X101184273Y-78101253D01*
X101412718Y-78465055D01*
X102390447Y-78850316D01*
X103441182Y-78832090D01*
X104327282Y-78465055D01*
X104555727Y-78101253D01*
X102870000Y-76415526D01*
X101184273Y-78101253D01*
X89319100Y-78101253D01*
X89319100Y-75720447D01*
X100219684Y-75720447D01*
X100237910Y-76771182D01*
X100604945Y-77657282D01*
X100968747Y-77885727D01*
X102654474Y-76200000D01*
X103085526Y-76200000D01*
X104771253Y-77885727D01*
X105135055Y-77657282D01*
X105520316Y-76679553D01*
X105520200Y-76672839D01*
X108101986Y-76672839D01*
X108464711Y-77550700D01*
X109135767Y-78222929D01*
X110012993Y-78587185D01*
X110962839Y-78588014D01*
X111840700Y-78225289D01*
X111964952Y-78101253D01*
X121504273Y-78101253D01*
X121732718Y-78465055D01*
X122710447Y-78850316D01*
X123761182Y-78832090D01*
X124647282Y-78465055D01*
X124875727Y-78101253D01*
X123190000Y-76415526D01*
X121504273Y-78101253D01*
X111964952Y-78101253D01*
X112512929Y-77554233D01*
X112877185Y-76677007D01*
X112878014Y-75727161D01*
X112875240Y-75720447D01*
X120539684Y-75720447D01*
X120557910Y-76771182D01*
X120924945Y-77657282D01*
X121288747Y-77885727D01*
X122974474Y-76200000D01*
X123405526Y-76200000D01*
X125091253Y-77885727D01*
X125455055Y-77657282D01*
X125840316Y-76679553D01*
X125840200Y-76672839D01*
X128421986Y-76672839D01*
X128784711Y-77550700D01*
X129455767Y-78222929D01*
X130332993Y-78587185D01*
X131282839Y-78588014D01*
X131875501Y-78343131D01*
X143174785Y-89642415D01*
X143421995Y-89807596D01*
X143713600Y-89865600D01*
X182734300Y-89865600D01*
X183025905Y-89807596D01*
X183273115Y-89642415D01*
X184136315Y-88779215D01*
X184301496Y-88532005D01*
X184327832Y-88399604D01*
X184359500Y-88240400D01*
X184359500Y-86963800D01*
X184301496Y-86672195D01*
X184220208Y-86550539D01*
X184136315Y-86424984D01*
X183229165Y-85517834D01*
X183314266Y-85090000D01*
X183225327Y-84642873D01*
X182972050Y-84263816D01*
X182592993Y-84010539D01*
X182145866Y-83921600D01*
X181582134Y-83921600D01*
X181135007Y-84010539D01*
X180755950Y-84263816D01*
X180502673Y-84642873D01*
X180444049Y-84937598D01*
X180330824Y-84937598D01*
X180442960Y-84718245D01*
X180434655Y-84657888D01*
X180165415Y-84168550D01*
X179730040Y-83820000D01*
X180165415Y-83471450D01*
X180434655Y-82982112D01*
X180442960Y-82921755D01*
X180330824Y-82702402D01*
X180444049Y-82702402D01*
X180502673Y-82997127D01*
X180755950Y-83376184D01*
X181135007Y-83629461D01*
X181582134Y-83718400D01*
X182145866Y-83718400D01*
X182592993Y-83629461D01*
X182972050Y-83376184D01*
X183225327Y-82997127D01*
X183314266Y-82550000D01*
X183225327Y-82102873D01*
X183218410Y-82092521D01*
X184142016Y-81168915D01*
X184241034Y-81020723D01*
X184307196Y-80921705D01*
X184365200Y-80630100D01*
X184365200Y-78960800D01*
X184307196Y-78669195D01*
X184170794Y-78465055D01*
X184142016Y-78421985D01*
X178642715Y-72922685D01*
X178395505Y-72757504D01*
X178103900Y-72699500D01*
X153868500Y-72699500D01*
X153576895Y-72757504D01*
X153329685Y-72922685D01*
X152195282Y-74057088D01*
X151607007Y-73812815D01*
X150657161Y-73811986D01*
X149779300Y-74174711D01*
X149107071Y-74845767D01*
X148742815Y-75722993D01*
X148741986Y-76672839D01*
X149104711Y-77550700D01*
X149775767Y-78222929D01*
X150652993Y-78587185D01*
X151602839Y-78588014D01*
X152480700Y-78225289D01*
X152604952Y-78101253D01*
X162144273Y-78101253D01*
X162372718Y-78465055D01*
X163350447Y-78850316D01*
X164401182Y-78832090D01*
X165287282Y-78465055D01*
X165515727Y-78101253D01*
X163830000Y-76415526D01*
X162144273Y-78101253D01*
X152604952Y-78101253D01*
X153152929Y-77554233D01*
X153517185Y-76677007D01*
X153518014Y-75727161D01*
X153515240Y-75720447D01*
X161179684Y-75720447D01*
X161197910Y-76771182D01*
X161564945Y-77657282D01*
X161928747Y-77885727D01*
X163614474Y-76200000D01*
X164045526Y-76200000D01*
X165731253Y-77885727D01*
X166095055Y-77657282D01*
X166480316Y-76679553D01*
X166462090Y-75628818D01*
X166095055Y-74742718D01*
X165731253Y-74514273D01*
X164045526Y-76200000D01*
X163614474Y-76200000D01*
X161928747Y-74514273D01*
X161564945Y-74742718D01*
X161179684Y-75720447D01*
X153515240Y-75720447D01*
X153273131Y-75134499D01*
X154184130Y-74223500D01*
X162191523Y-74223500D01*
X162144273Y-74298747D01*
X163830000Y-75984474D01*
X165515727Y-74298747D01*
X165468477Y-74223500D01*
X170050426Y-74223500D01*
X169427071Y-74845767D01*
X169062815Y-75722993D01*
X169061986Y-76672839D01*
X169424711Y-77550700D01*
X170095767Y-78222929D01*
X170972993Y-78587185D01*
X171922839Y-78588014D01*
X172800700Y-78225289D01*
X173472929Y-77554233D01*
X173718846Y-76962000D01*
X178957870Y-76962000D01*
X180848000Y-78852130D01*
X180848000Y-79122310D01*
X180755950Y-79183816D01*
X180502673Y-79562873D01*
X180492400Y-79614519D01*
X180492400Y-79075943D01*
X180399594Y-78851889D01*
X180228111Y-78680406D01*
X180004057Y-78587600D01*
X179120800Y-78587600D01*
X178968400Y-78740000D01*
X178968400Y-79857600D01*
X178988400Y-79857600D01*
X178988400Y-80162400D01*
X178968400Y-80162400D01*
X178968400Y-82397600D01*
X178988400Y-82397600D01*
X178988400Y-82702400D01*
X178968400Y-82702400D01*
X178968400Y-84937600D01*
X178988400Y-84937600D01*
X178988400Y-85242400D01*
X178968400Y-85242400D01*
X178968400Y-87477600D01*
X178988400Y-87477600D01*
X178988400Y-87782400D01*
X178968400Y-87782400D01*
X178968400Y-87802400D01*
X178663600Y-87802400D01*
X178663600Y-87782400D01*
X177301177Y-87782400D01*
X177189040Y-88001755D01*
X177197345Y-88062112D01*
X177351123Y-88341600D01*
X144029230Y-88341600D01*
X141149385Y-85461755D01*
X177189040Y-85461755D01*
X177197345Y-85522112D01*
X177466585Y-86011450D01*
X177901960Y-86360000D01*
X177466585Y-86708550D01*
X177197345Y-87197888D01*
X177189040Y-87258245D01*
X177301177Y-87477600D01*
X178663600Y-87477600D01*
X178663600Y-85242400D01*
X177301177Y-85242400D01*
X177189040Y-85461755D01*
X141149385Y-85461755D01*
X138609385Y-82921755D01*
X177189040Y-82921755D01*
X177197345Y-82982112D01*
X177466585Y-83471450D01*
X177901960Y-83820000D01*
X177466585Y-84168550D01*
X177197345Y-84657888D01*
X177189040Y-84718245D01*
X177301177Y-84937600D01*
X178663600Y-84937600D01*
X178663600Y-82702400D01*
X177301177Y-82702400D01*
X177189040Y-82921755D01*
X138609385Y-82921755D01*
X136002430Y-80314800D01*
X177139600Y-80314800D01*
X177139600Y-80944057D01*
X177232406Y-81168111D01*
X177403889Y-81339594D01*
X177627943Y-81432400D01*
X177711597Y-81432400D01*
X177466585Y-81628550D01*
X177197345Y-82117888D01*
X177189040Y-82178245D01*
X177301177Y-82397600D01*
X178663600Y-82397600D01*
X178663600Y-80162400D01*
X177292000Y-80162400D01*
X177139600Y-80314800D01*
X136002430Y-80314800D01*
X134763573Y-79075943D01*
X177139600Y-79075943D01*
X177139600Y-79705200D01*
X177292000Y-79857600D01*
X178663600Y-79857600D01*
X178663600Y-78740000D01*
X178511200Y-78587600D01*
X177627943Y-78587600D01*
X177403889Y-78680406D01*
X177232406Y-78851889D01*
X177139600Y-79075943D01*
X134763573Y-79075943D01*
X133788883Y-78101253D01*
X141824273Y-78101253D01*
X142052718Y-78465055D01*
X143030447Y-78850316D01*
X144081182Y-78832090D01*
X144967282Y-78465055D01*
X145195727Y-78101253D01*
X143510000Y-76415526D01*
X141824273Y-78101253D01*
X133788883Y-78101253D01*
X132952912Y-77265282D01*
X133197185Y-76677007D01*
X133198014Y-75727161D01*
X133195240Y-75720447D01*
X140859684Y-75720447D01*
X140877910Y-76771182D01*
X141244945Y-77657282D01*
X141608747Y-77885727D01*
X143294474Y-76200000D01*
X143725526Y-76200000D01*
X145411253Y-77885727D01*
X145775055Y-77657282D01*
X146160316Y-76679553D01*
X146142090Y-75628818D01*
X145775055Y-74742718D01*
X145411253Y-74514273D01*
X143725526Y-76200000D01*
X143294474Y-76200000D01*
X141608747Y-74514273D01*
X141244945Y-74742718D01*
X140859684Y-75720447D01*
X133195240Y-75720447D01*
X132835289Y-74849300D01*
X132285697Y-74298747D01*
X141824273Y-74298747D01*
X143510000Y-75984474D01*
X145195727Y-74298747D01*
X144967282Y-73934945D01*
X143989553Y-73549684D01*
X142938818Y-73567910D01*
X142052718Y-73934945D01*
X141824273Y-74298747D01*
X132285697Y-74298747D01*
X132164233Y-74177071D01*
X131287007Y-73812815D01*
X130337161Y-73811986D01*
X129459300Y-74174711D01*
X128787071Y-74845767D01*
X128422815Y-75722993D01*
X128421986Y-76672839D01*
X125840200Y-76672839D01*
X125822090Y-75628818D01*
X125455055Y-74742718D01*
X125091253Y-74514273D01*
X123405526Y-76200000D01*
X122974474Y-76200000D01*
X121288747Y-74514273D01*
X120924945Y-74742718D01*
X120539684Y-75720447D01*
X112875240Y-75720447D01*
X112515289Y-74849300D01*
X111965697Y-74298747D01*
X121504273Y-74298747D01*
X123190000Y-75984474D01*
X124875727Y-74298747D01*
X124647282Y-73934945D01*
X123669553Y-73549684D01*
X122618818Y-73567910D01*
X121732718Y-73934945D01*
X121504273Y-74298747D01*
X111965697Y-74298747D01*
X111844233Y-74177071D01*
X110967007Y-73812815D01*
X110017161Y-73811986D01*
X109139300Y-74174711D01*
X108467071Y-74845767D01*
X108102815Y-75722993D01*
X108101986Y-76672839D01*
X105520200Y-76672839D01*
X105502090Y-75628818D01*
X105135055Y-74742718D01*
X104771253Y-74514273D01*
X103085526Y-76200000D01*
X102654474Y-76200000D01*
X100968747Y-74514273D01*
X100604945Y-74742718D01*
X100219684Y-75720447D01*
X89319100Y-75720447D01*
X89319100Y-74298747D01*
X101184273Y-74298747D01*
X102870000Y-75984474D01*
X104555727Y-74298747D01*
X104327282Y-73934945D01*
X103349553Y-73549684D01*
X102298818Y-73567910D01*
X101412718Y-73934945D01*
X101184273Y-74298747D01*
X89319100Y-74298747D01*
X89319100Y-64453020D01*
X89468575Y-64814777D01*
X90121784Y-65469127D01*
X90975680Y-65823696D01*
X91900264Y-65824503D01*
X92754777Y-65471425D01*
X93409127Y-64818216D01*
X93763696Y-63964320D01*
X93764503Y-63039736D01*
X93411425Y-62185223D01*
X92758216Y-61530873D01*
X92392706Y-61379100D01*
X181926980Y-61379100D01*
X181565223Y-61528575D01*
X181565223Y-61528575D01*
G37*
X181565223Y-61528575D02*
X180910873Y-62181784D01*
X180556304Y-63035680D01*
X180555497Y-63960264D01*
X180908575Y-64814777D01*
X181561784Y-65469127D01*
X182415680Y-65823696D01*
X183340264Y-65824503D01*
X184194777Y-65471425D01*
X184849127Y-64818216D01*
X185000900Y-64452706D01*
X185000900Y-103186980D01*
X184851425Y-102825223D01*
X184198216Y-102170873D01*
X183344320Y-101816304D01*
X182419736Y-101815497D01*
X181565223Y-102168575D01*
X180910873Y-102821784D01*
X180556304Y-103675680D01*
X180555497Y-104600264D01*
X180908575Y-105454777D01*
X181561784Y-106109127D01*
X181927294Y-106260900D01*
X92393020Y-106260900D01*
X92754777Y-106111425D01*
X93409127Y-105458216D01*
X93763696Y-104604320D01*
X93764503Y-103679736D01*
X93411425Y-102825223D01*
X92758216Y-102170873D01*
X91904320Y-101816304D01*
X90979736Y-101815497D01*
X90125223Y-102168575D01*
X89470873Y-102821784D01*
X89319100Y-103187294D01*
X89319100Y-78101253D01*
X101184273Y-78101253D01*
X101412718Y-78465055D01*
X102390447Y-78850316D01*
X103441182Y-78832090D01*
X104327282Y-78465055D01*
X104555727Y-78101253D01*
X102870000Y-76415526D01*
X101184273Y-78101253D01*
X89319100Y-78101253D01*
X89319100Y-75720447D01*
X100219684Y-75720447D01*
X100237910Y-76771182D01*
X100604945Y-77657282D01*
X100968747Y-77885727D01*
X102654474Y-76200000D01*
X103085526Y-76200000D01*
X104771253Y-77885727D01*
X105135055Y-77657282D01*
X105520316Y-76679553D01*
X105520200Y-76672839D01*
X108101986Y-76672839D01*
X108464711Y-77550700D01*
X109135767Y-78222929D01*
X110012993Y-78587185D01*
X110962839Y-78588014D01*
X111840700Y-78225289D01*
X111964952Y-78101253D01*
X121504273Y-78101253D01*
X121732718Y-78465055D01*
X122710447Y-78850316D01*
X123761182Y-78832090D01*
X124647282Y-78465055D01*
X124875727Y-78101253D01*
X123190000Y-76415526D01*
X121504273Y-78101253D01*
X111964952Y-78101253D01*
X112512929Y-77554233D01*
X112877185Y-76677007D01*
X112878014Y-75727161D01*
X112875240Y-75720447D01*
X120539684Y-75720447D01*
X120557910Y-76771182D01*
X120924945Y-77657282D01*
X121288747Y-77885727D01*
X122974474Y-76200000D01*
X123405526Y-76200000D01*
X125091253Y-77885727D01*
X125455055Y-77657282D01*
X125840316Y-76679553D01*
X125840200Y-76672839D01*
X128421986Y-76672839D01*
X128784711Y-77550700D01*
X129455767Y-78222929D01*
X130332993Y-78587185D01*
X131282839Y-78588014D01*
X131875501Y-78343131D01*
X143174785Y-89642415D01*
X143421995Y-89807596D01*
X143713600Y-89865600D01*
X182734300Y-89865600D01*
X183025905Y-89807596D01*
X183273115Y-89642415D01*
X184136315Y-88779215D01*
X184301496Y-88532005D01*
X184327832Y-88399604D01*
X184359500Y-88240400D01*
X184359500Y-86963800D01*
X184301496Y-86672195D01*
X184220208Y-86550539D01*
X184136315Y-86424984D01*
X183229165Y-85517834D01*
X183314266Y-85090000D01*
X183225327Y-84642873D01*
X182972050Y-84263816D01*
X182592993Y-84010539D01*
X182145866Y-83921600D01*
X181582134Y-83921600D01*
X181135007Y-84010539D01*
X180755950Y-84263816D01*
X180502673Y-84642873D01*
X180444049Y-84937598D01*
X180330824Y-84937598D01*
X180442960Y-84718245D01*
X180434655Y-84657888D01*
X180165415Y-84168550D01*
X179730040Y-83820000D01*
X180165415Y-83471450D01*
X180434655Y-82982112D01*
X180442960Y-82921755D01*
X180330824Y-82702402D01*
X180444049Y-82702402D01*
X180502673Y-82997127D01*
X180755950Y-83376184D01*
X181135007Y-83629461D01*
X181582134Y-83718400D01*
X182145866Y-83718400D01*
X182592993Y-83629461D01*
X182972050Y-83376184D01*
X183225327Y-82997127D01*
X183314266Y-82550000D01*
X183225327Y-82102873D01*
X183218410Y-82092521D01*
X184142016Y-81168915D01*
X184241034Y-81020723D01*
X184307196Y-80921705D01*
X184365200Y-80630100D01*
X184365200Y-78960800D01*
X184307196Y-78669195D01*
X184170794Y-78465055D01*
X184142016Y-78421985D01*
X178642715Y-72922685D01*
X178395505Y-72757504D01*
X178103900Y-72699500D01*
X153868500Y-72699500D01*
X153576895Y-72757504D01*
X153329685Y-72922685D01*
X152195282Y-74057088D01*
X151607007Y-73812815D01*
X150657161Y-73811986D01*
X149779300Y-74174711D01*
X149107071Y-74845767D01*
X148742815Y-75722993D01*
X148741986Y-76672839D01*
X149104711Y-77550700D01*
X149775767Y-78222929D01*
X150652993Y-78587185D01*
X151602839Y-78588014D01*
X152480700Y-78225289D01*
X152604952Y-78101253D01*
X162144273Y-78101253D01*
X162372718Y-78465055D01*
X163350447Y-78850316D01*
X164401182Y-78832090D01*
X165287282Y-78465055D01*
X165515727Y-78101253D01*
X163830000Y-76415526D01*
X162144273Y-78101253D01*
X152604952Y-78101253D01*
X153152929Y-77554233D01*
X153517185Y-76677007D01*
X153518014Y-75727161D01*
X153515240Y-75720447D01*
X161179684Y-75720447D01*
X161197910Y-76771182D01*
X161564945Y-77657282D01*
X161928747Y-77885727D01*
X163614474Y-76200000D01*
X164045526Y-76200000D01*
X165731253Y-77885727D01*
X166095055Y-77657282D01*
X166480316Y-76679553D01*
X166462090Y-75628818D01*
X166095055Y-74742718D01*
X165731253Y-74514273D01*
X164045526Y-76200000D01*
X163614474Y-76200000D01*
X161928747Y-74514273D01*
X161564945Y-74742718D01*
X161179684Y-75720447D01*
X153515240Y-75720447D01*
X153273131Y-75134499D01*
X154184130Y-74223500D01*
X162191523Y-74223500D01*
X162144273Y-74298747D01*
X163830000Y-75984474D01*
X165515727Y-74298747D01*
X165468477Y-74223500D01*
X170050426Y-74223500D01*
X169427071Y-74845767D01*
X169062815Y-75722993D01*
X169061986Y-76672839D01*
X169424711Y-77550700D01*
X170095767Y-78222929D01*
X170972993Y-78587185D01*
X171922839Y-78588014D01*
X172800700Y-78225289D01*
X173472929Y-77554233D01*
X173718846Y-76962000D01*
X178957870Y-76962000D01*
X180848000Y-78852130D01*
X180848000Y-79122310D01*
X180755950Y-79183816D01*
X180502673Y-79562873D01*
X180492400Y-79614519D01*
X180492400Y-79075943D01*
X180399594Y-78851889D01*
X180228111Y-78680406D01*
X180004057Y-78587600D01*
X179120800Y-78587600D01*
X178968400Y-78740000D01*
X178968400Y-79857600D01*
X178988400Y-79857600D01*
X178988400Y-80162400D01*
X178968400Y-80162400D01*
X178968400Y-82397600D01*
X178988400Y-82397600D01*
X178988400Y-82702400D01*
X178968400Y-82702400D01*
X178968400Y-84937600D01*
X178988400Y-84937600D01*
X178988400Y-85242400D01*
X178968400Y-85242400D01*
X178968400Y-87477600D01*
X178988400Y-87477600D01*
X178988400Y-87782400D01*
X178968400Y-87782400D01*
X178968400Y-87802400D01*
X178663600Y-87802400D01*
X178663600Y-87782400D01*
X177301177Y-87782400D01*
X177189040Y-88001755D01*
X177197345Y-88062112D01*
X177351123Y-88341600D01*
X144029230Y-88341600D01*
X141149385Y-85461755D01*
X177189040Y-85461755D01*
X177197345Y-85522112D01*
X177466585Y-86011450D01*
X177901960Y-86360000D01*
X177466585Y-86708550D01*
X177197345Y-87197888D01*
X177189040Y-87258245D01*
X177301177Y-87477600D01*
X178663600Y-87477600D01*
X178663600Y-85242400D01*
X177301177Y-85242400D01*
X177189040Y-85461755D01*
X141149385Y-85461755D01*
X138609385Y-82921755D01*
X177189040Y-82921755D01*
X177197345Y-82982112D01*
X177466585Y-83471450D01*
X177901960Y-83820000D01*
X177466585Y-84168550D01*
X177197345Y-84657888D01*
X177189040Y-84718245D01*
X177301177Y-84937600D01*
X178663600Y-84937600D01*
X178663600Y-82702400D01*
X177301177Y-82702400D01*
X177189040Y-82921755D01*
X138609385Y-82921755D01*
X136002430Y-80314800D01*
X177139600Y-80314800D01*
X177139600Y-80944057D01*
X177232406Y-81168111D01*
X177403889Y-81339594D01*
X177627943Y-81432400D01*
X177711597Y-81432400D01*
X177466585Y-81628550D01*
X177197345Y-82117888D01*
X177189040Y-82178245D01*
X177301177Y-82397600D01*
X178663600Y-82397600D01*
X178663600Y-80162400D01*
X177292000Y-80162400D01*
X177139600Y-80314800D01*
X136002430Y-80314800D01*
X134763573Y-79075943D01*
X177139600Y-79075943D01*
X177139600Y-79705200D01*
X177292000Y-79857600D01*
X178663600Y-79857600D01*
X178663600Y-78740000D01*
X178511200Y-78587600D01*
X177627943Y-78587600D01*
X177403889Y-78680406D01*
X177232406Y-78851889D01*
X177139600Y-79075943D01*
X134763573Y-79075943D01*
X133788883Y-78101253D01*
X141824273Y-78101253D01*
X142052718Y-78465055D01*
X143030447Y-78850316D01*
X144081182Y-78832090D01*
X144967282Y-78465055D01*
X145195727Y-78101253D01*
X143510000Y-76415526D01*
X141824273Y-78101253D01*
X133788883Y-78101253D01*
X132952912Y-77265282D01*
X133197185Y-76677007D01*
X133198014Y-75727161D01*
X133195240Y-75720447D01*
X140859684Y-75720447D01*
X140877910Y-76771182D01*
X141244945Y-77657282D01*
X141608747Y-77885727D01*
X143294474Y-76200000D01*
X143725526Y-76200000D01*
X145411253Y-77885727D01*
X145775055Y-77657282D01*
X146160316Y-76679553D01*
X146142090Y-75628818D01*
X145775055Y-74742718D01*
X145411253Y-74514273D01*
X143725526Y-76200000D01*
X143294474Y-76200000D01*
X141608747Y-74514273D01*
X141244945Y-74742718D01*
X140859684Y-75720447D01*
X133195240Y-75720447D01*
X132835289Y-74849300D01*
X132285697Y-74298747D01*
X141824273Y-74298747D01*
X143510000Y-75984474D01*
X145195727Y-74298747D01*
X144967282Y-73934945D01*
X143989553Y-73549684D01*
X142938818Y-73567910D01*
X142052718Y-73934945D01*
X141824273Y-74298747D01*
X132285697Y-74298747D01*
X132164233Y-74177071D01*
X131287007Y-73812815D01*
X130337161Y-73811986D01*
X129459300Y-74174711D01*
X128787071Y-74845767D01*
X128422815Y-75722993D01*
X128421986Y-76672839D01*
X125840200Y-76672839D01*
X125822090Y-75628818D01*
X125455055Y-74742718D01*
X125091253Y-74514273D01*
X123405526Y-76200000D01*
X122974474Y-76200000D01*
X121288747Y-74514273D01*
X120924945Y-74742718D01*
X120539684Y-75720447D01*
X112875240Y-75720447D01*
X112515289Y-74849300D01*
X111965697Y-74298747D01*
X121504273Y-74298747D01*
X123190000Y-75984474D01*
X124875727Y-74298747D01*
X124647282Y-73934945D01*
X123669553Y-73549684D01*
X122618818Y-73567910D01*
X121732718Y-73934945D01*
X121504273Y-74298747D01*
X111965697Y-74298747D01*
X111844233Y-74177071D01*
X110967007Y-73812815D01*
X110017161Y-73811986D01*
X109139300Y-74174711D01*
X108467071Y-74845767D01*
X108102815Y-75722993D01*
X108101986Y-76672839D01*
X105520200Y-76672839D01*
X105502090Y-75628818D01*
X105135055Y-74742718D01*
X104771253Y-74514273D01*
X103085526Y-76200000D01*
X102654474Y-76200000D01*
X100968747Y-74514273D01*
X100604945Y-74742718D01*
X100219684Y-75720447D01*
X89319100Y-75720447D01*
X89319100Y-74298747D01*
X101184273Y-74298747D01*
X102870000Y-75984474D01*
X104555727Y-74298747D01*
X104327282Y-73934945D01*
X103349553Y-73549684D01*
X102298818Y-73567910D01*
X101412718Y-73934945D01*
X101184273Y-74298747D01*
X89319100Y-74298747D01*
X89319100Y-64453020D01*
X89468575Y-64814777D01*
X90121784Y-65469127D01*
X90975680Y-65823696D01*
X91900264Y-65824503D01*
X92754777Y-65471425D01*
X93409127Y-64818216D01*
X93763696Y-63964320D01*
X93764503Y-63039736D01*
X93411425Y-62185223D01*
X92758216Y-61530873D01*
X92392706Y-61379100D01*
X181926980Y-61379100D01*
X181565223Y-61528575D01*
M02*
